<?xml version="1.0" encoding="UTF-8" standalone="no"?> <svg id="solid" xmlns="http://www.w3.org/2000/svg" viewBox="0 0 512 512"><rect x="32" y="304" width="24" height="16"/><rect x="120" y="312" width="16" height="16"/><rect x="104" y="296" width="16" height="16"/><polygon points="472 184 456 184 456 200 416 200 416 184 400 184 400 200 384 200 384 216 496 216 496 200 472 200 472 184"/><rect x="480" y="232" width="16" height="48"/><polygon points="448 280 448 264 432 264 432 312 416 312 416 344 432 344 432 328 488 328 488 312 448 312 448 296 480 296 480 280 448 280"/><polygon points="184 40 184 56 248 56 248 112 264 112 264 96 312 96 312 136 328 136 328 80 264 80 264 40 184 40"/><polygon points="184 112 216 112 216 128 232 128 232 96 184 96 184 112"/><rect x="264" y="24" width="16" height="16"/><rect x="184" y="128" width="16" height="16"/><polygon points="208 392 232 392 232 376 208 376 208 360 264 360 264 344 176 344 176 376 192 376 192 424 208 424 208 392"/><polygon points="32 280 136 280 136 312 152 312 152 216 64 216 64 200 48 200 48 216 16 216 16 232 120 232 120 264 16 264 16 304 32 304 32 280"/><path d="M32,32H160V16H24a8,8,0,0,0-8,8V160H32Z"/><path d="M32,352H16V488a8,8,0,0,0,8,8H160V480H32Z"/><path d="M488,16H352V32H480V160h16V24A8,8,0,0,0,488,16Z"/><path d="M480,480H352v16H488a8,8,0,0,0,8-8V352H480Z"/><rect x="176" y="424" width="16" height="16"/><rect x="320" y="376" width="16" height="80"/><path d="M248,400v48h16V408h40V392H256A8,8,0,0,0,248,400Z"/><polygon points="384 336 352 336 352 320 336 320 336 336 296 336 296 352 384 352 384 336"/><path d="M216,456H200v32a8,8,0,0,0,8,8h32V480H216Z"/><path d="M80,184v16h32a8,8,0,0,0,8-8V160H104v24Z"/><rect x="32" y="184" width="16" height="16"/><rect x="360" y="160" width="16" height="24"/><rect x="280" y="464" width="16" height="16"/><rect x="72" y="336" width="48" height="16"/><rect x="280" y="352" width="16" height="16"/><rect x="296" y="32" width="16" height="32"/><rect x="136" y="176" width="16" height="16"/><rect x="152" y="160" width="16" height="16"/><rect x="280" y="432" width="16" height="16"/><rect x="424" y="160" width="16" height="16"/><rect x="448" y="248" width="16" height="16"/><polygon points="416 232 384 232 384 272 352 272 352 288 368 288 368 312 384 312 384 288 400 288 400 248 416 248 416 232"/><path d="M256,272a64.072,64.072,0,0,1-64-64V192H320v16A64.072,64.072,0,0,1,256,272Zm96-32H329.3a79.344,79.344,0,0,0,6.3-24H352Z"/><rect x="208" y="304" width="96" height="16"/><rect x="232" y="128" width="16" height="16"/><rect x="248" y="144" width="16" height="16"/><rect x="296" y="136" width="16" height="16"/><path d="M64,128h64V64H64ZM80,88a8,8,0,0,1,8-8h16a8,8,0,0,1,8,8v16a8,8,0,0,1-8,8H88a8,8,0,0,1-8-8Z"/><path d="M384,64v64h64V64Zm48,40a8,8,0,0,1-8,8H408a8,8,0,0,1-8-8V88a8,8,0,0,1,8-8h16a8,8,0,0,1,8,8Z"/><path d="M64,448h64V384H64Zm16-40a8,8,0,0,1,8-8h16a8,8,0,0,1,8,8v16a8,8,0,0,1-8,8H88a8,8,0,0,1-8-8Z"/><path d="M384,448h64V384H384Zm16-40a8,8,0,0,1,8-8h16a8,8,0,0,1,8,8v16a8,8,0,0,1-8,8H408a8,8,0,0,1-8-8Z"/></svg>